

<svg width="18" height="20" viewBox="0 0 18 20" fill="none" xmlns="http://www.w3.org/2000/svg">
<path d="M8.90934 5.81119C9.03143 6.30329 9.03537 6.81882 8.92903 7.31482C8.81876 7.77958 8.59427 8.27949 8.2792 8.67785C7.70814 9.32227 6.9953 9.73235 6.1328 9.92763V18.4378C6.1328 18.8518 6.00283 19.2501 5.70746 19.5431C5.41208 19.836 5.01037 20 4.55746 20C4.17544 20 3.77451 19.836 3.47874 19.5431C3.18337 19.2501 2.98212 18.8518 2.98212 18.4378V9.92763C2.18893 9.7714 1.44064 9.33398 0.902665 8.68957C0.583264 8.29121 0.360314 7.82645 0.251064 7.32654C0.141814 6.82663 0.149198 6.3111 0.272646 5.8151L1.4623 0.489902C1.49578 0.339461 1.58439 0.206633 1.71081 0.116923C1.83684 0.0271741 1.99241 -0.0131193 2.14679 0.00376436C2.30157 0.0204644 2.44492 0.0936073 2.5489 0.209055C2.65287 0.324463 2.70958 0.473889 2.70879 0.628548V6.25252H3.39289L4.06595 0.468812C4.0817 0.340906 4.14393 0.223193 4.24239 0.137779C4.33691 0.0524039 4.46294 0.00522894 4.55746 0.00522894C4.72287 0.00522894 4.8489 0.0524039 4.94342 0.137779C5.04187 0.223193 5.06944 0.340906 5.12064 0.468812L5.7941 6.25252H6.44787V0.628548C6.44787 0.475061 6.53845 0.326572 6.6054 0.21132C6.74324 0.0960678 6.88502 0.0221751 7.03862 0.00376436C7.19222 -0.0129826 7.3143 0.0278381 7.47578 0.118329C7.6018 0.208821 7.68845 0.342546 7.72389 0.493807L8.90934 5.81119ZM17.8258 18.4378C17.8258 18.8518 17.6604 19.2501 17.365 19.5431C17.0696 19.836 16.6679 20 16.2504 20C15.833 20 15.4313 19.836 15.1359 19.5431C14.8405 19.2501 14.6751 18.8518 14.6751 18.4378V13.7511H14.0134C13.6826 13.7511 13.3518 13.6847 13.0446 13.5598C12.7414 13.4309 12.4617 13.2473 12.2254 13.013C11.9931 12.7787 11.808 12.5014 11.6465 12.1967C11.5559 11.8921 11.4929 11.564 11.4929 11.236L11.489 6.79148C11.5244 5.35034 11.9616 3.94044 12.7768 2.74847C13.592 1.55455 14.746 0.630501 16.0968 0.0950133C16.2544 0.019324 16.4946 -0.0088427 16.6994 0.013001C16.9042 0.0348368 17.1011 0.105988 17.2705 0.220264C17.4398 0.33454 17.5816 0.48834 17.6761 0.668775C17.7746 0.848821 17.7903 1.04956 17.8258 1.25343V18.4378Z" fill="#FF2C3A"/>
</svg>

