
<svg width="17" height="16" viewBox="0 0 17 16" fill="none" xmlns="http://www.w3.org/2000/svg">
<path d="M0.356696 7.15581C-0.117635 7.62273 -0.117635 8.38101 0.356696 8.84793L6.42812 14.8245C6.90245 15.2914 7.67277 15.2914 8.1471 14.8245C8.62143 14.3576 8.62143 13.5993 8.1471 13.1324L4.14375 9.19531L15.7857 9.19531C16.4574 9.19531 17 8.66116 17 8C17 7.33885 16.4574 6.80469 15.7857 6.80469L4.14754 6.80469L8.1433 2.86763C8.61763 2.40071 8.61764 1.64243 8.14331 1.17551C7.66898 0.708594 6.89866 0.708594 6.42433 1.17551L0.352902 7.15208L0.356696 7.15581Z" fill="#FF2C3A"/>
</svg>
