
<svg width="23" height="18" viewBox="0 0 23 18" fill="none" xmlns="http://www.w3.org/2000/svg">
<path d="M12.65 4.5C12.65 6.98555 10.5908 9 8.05 9C5.50922 9 3.45 6.98555 3.45 4.5C3.45 2.01445 5.50922 0 8.05 0C10.5908 0 12.65 2.01445 12.65 4.5ZM0 16.9559C0 13.493 2.86781 10.6875 6.40766 10.6875H9.69234C13.2322 10.6875 16.1 13.493 16.1 16.9559C16.1 17.5324 15.622 18 15.0327 18H1.06734C0.477969 18 0 17.5324 0 16.9559ZM21.8967 18H16.9409C17.135 17.6695 17.25 17.2863 17.25 16.875V16.5938C17.25 14.4598 16.2761 12.5438 14.7416 11.257C14.8278 11.2535 14.9105 11.25 14.9967 11.25H17.2033C20.4053 11.25 23 13.7883 23 16.9207C23 17.5184 22.5041 18 21.8967 18ZM15.525 9C14.4109 9 13.4047 8.55703 12.6752 7.84336C13.3831 6.9082 13.8 5.75156 13.8 4.5C13.8 3.55781 13.5628 2.66836 13.1423 1.88789C13.8108 1.40977 14.6337 1.125 15.525 1.125C17.7495 1.125 19.55 2.88633 19.55 5.0625C19.55 7.23867 17.7495 9 15.525 9Z" fill="#FF2B3A"/>
</svg>
