<svg width="24" height="28" viewBox="0 0 24 28" fill="none" xmlns="http://www.w3.org/2000/svg">
<path d="M10.5566 10.5417C11.0488 10.5417 11.5073 10.5417 11.9645 10.5417C12.4364 10.5417 12.5798 10.6801 12.538 11.1498C12.5115 11.5035 12.4024 11.846 12.2195 12.15C12.0365 12.4539 11.7848 12.7107 11.4845 12.8998C11.2648 13.043 10.9449 13.0523 10.6667 13.0799C10.3129 13.1156 9.87292 12.9846 9.62063 13.1531C9.38434 13.3124 9.33696 13.7618 9.22497 14.0902C8.53517 16.1193 7.83491 18.1447 7.1728 20.1824C6.90766 20.9693 6.78269 21.7965 6.80359 22.6265C6.82943 23.3613 7.24664 23.6423 7.90198 23.3078C8.29988 23.0988 8.66976 22.8403 9.00283 22.5386C10.0489 21.6077 10.8642 20.4751 11.695 19.3584C11.8063 19.2084 11.7331 19.1242 11.6599 19.0104C11.0224 18.0156 10.6673 16.9371 10.8661 15.7516C10.945 15.2698 11.1118 14.8067 11.3584 14.3853C12.6567 12.2332 13.9957 10.1039 15.3119 7.96168C15.4221 7.78275 15.5458 7.68498 15.7482 7.69667C16.003 7.71142 16.262 7.71142 16.51 7.76184C16.9328 7.84854 17.3395 8.41115 17.3032 8.83603C17.2958 8.91966 17.2312 9.00205 17.1838 9.07891C16.0815 10.8616 14.9792 12.6436 13.877 14.4247C13.8154 14.5194 13.7631 14.6159 13.6924 14.7389L14.9704 15.5345C15.0935 15.3458 15.2129 15.1613 15.3286 14.9744C16.3668 13.297 17.4043 11.6192 18.441 9.94097C18.6668 9.57635 19.3701 9.45399 19.7763 9.70916C20.0636 9.88994 20.1239 10.447 19.8993 10.8159C18.7966 12.5975 17.6941 14.3792 16.5919 16.1611C16.5439 16.2386 16.4989 16.3185 16.4325 16.4316L17.7019 17.2248C17.7727 17.1215 17.8367 17.0354 17.8933 16.9438C18.9591 15.2222 20.0439 13.514 21.0783 11.7752C21.4285 11.1867 21.7331 11.2648 22.2309 11.4062C22.6616 11.5292 22.8665 11.9024 23.021 12.2886C23.0505 12.3624 23.005 12.489 22.9564 12.5677C21.5946 14.7813 20.2488 16.9949 18.8545 19.1881C18.1493 20.2949 17.0281 20.7555 15.7618 20.8803C15.0233 20.9534 14.512 20.884 14.0259 20.7093C13.773 21.1945 13.5305 21.6888 13.2629 22.1684C12.4014 23.7099 11.4537 25.1887 10.1554 26.4074C9.45572 27.0635 8.70008 27.6987 7.74507 27.8751C5.52983 28.2865 3.64195 27.6944 2.15282 25.9075C0.959057 24.4773 0.776915 22.8608 1.13074 21.1471C1.32272 20.2131 1.66116 19.3025 1.97807 18.4011C2.58172 16.6794 3.21737 14.9645 3.83948 13.2472C3.85313 13.1951 3.86382 13.1424 3.87148 13.0891H2.15221C1.37503 13.0891 1.08459 12.7202 1.25996 11.9492C1.47041 11.0268 2.07529 10.5436 3.026 10.5436C3.5995 10.5436 4.17361 10.5534 4.74896 10.5349C4.86157 10.5313 5.03202 10.4427 5.07201 10.3505C6.1944 7.72249 7.32294 5.09757 8.39979 2.45052C8.63731 1.86577 8.70316 1.20601 8.80653 0.574527C8.87853 0.133044 9.10682 -0.0692507 9.56587 0.0211365C10.1978 0.144112 10.735 0.451551 11.199 0.885041C12.4161 2.01273 12.8407 3.39375 12.3681 4.98013C11.8451 6.73991 11.2439 8.47633 10.6759 10.2226C10.6446 10.3111 10.6076 10.4027 10.5566 10.5417Z" fill="white"/>
</svg>
